<mxfile host="app.diagrams.net" modified="2023-06-13T16:03:34.443Z" agent="Mozilla/5.0 (Macintosh; Intel Mac OS X 10_15_7) AppleWebKit/537.36 (KHTML, like Gecko) Chrome/114.0.0.0 Safari/537.36" etag="u8i3aYTbWu_XICDeQed4" version="21.3.2" type="device">
  <diagram name="Page-1" id="Rg7tFy21nEe66vsASfUe">
    <mxGraphModel dx="413" dy="259" grid="1" gridSize="10" guides="1" tooltips="1" connect="1" arrows="1" fold="1" page="1" pageScale="1" pageWidth="850" pageHeight="1100" math="0" shadow="0">
      <root>
        <mxCell id="0" />
        <mxCell id="1" parent="0" />
        <mxCell id="K1aNCSsKctviTdPy4IMN-1" value="" style="ellipse;whiteSpace=wrap;html=1;aspect=fixed;fillColor=#999999;strokeColor=#666666;fontColor=#333333;" vertex="1" parent="1">
          <mxGeometry x="120" y="200" width="40" height="40" as="geometry" />
        </mxCell>
        <mxCell id="K1aNCSsKctviTdPy4IMN-2" value="" style="ellipse;whiteSpace=wrap;html=1;aspect=fixed;fillColor=#999999;" vertex="1" parent="1">
          <mxGeometry x="190" y="160" width="40" height="40" as="geometry" />
        </mxCell>
        <mxCell id="K1aNCSsKctviTdPy4IMN-3" value="" style="ellipse;whiteSpace=wrap;html=1;aspect=fixed;fillColor=#999999;" vertex="1" parent="1">
          <mxGeometry x="80" y="280" width="40" height="40" as="geometry" />
        </mxCell>
        <mxCell id="K1aNCSsKctviTdPy4IMN-4" value="" style="ellipse;whiteSpace=wrap;html=1;aspect=fixed;fillColor=#999999;" vertex="1" parent="1">
          <mxGeometry x="210" y="240" width="40" height="40" as="geometry" />
        </mxCell>
        <mxCell id="K1aNCSsKctviTdPy4IMN-5" value="" style="ellipse;whiteSpace=wrap;html=1;aspect=fixed;fontStyle=1" vertex="1" parent="1">
          <mxGeometry x="360" y="170" width="40" height="40" as="geometry" />
        </mxCell>
        <mxCell id="K1aNCSsKctviTdPy4IMN-6" value="" style="ellipse;whiteSpace=wrap;html=1;aspect=fixed;fillColor=#999999;" vertex="1" parent="1">
          <mxGeometry x="250" y="290" width="40" height="40" as="geometry" />
        </mxCell>
        <mxCell id="K1aNCSsKctviTdPy4IMN-7" value="" style="ellipse;whiteSpace=wrap;html=1;aspect=fixed;" vertex="1" parent="1">
          <mxGeometry x="310" y="230" width="40" height="40" as="geometry" />
        </mxCell>
        <mxCell id="K1aNCSsKctviTdPy4IMN-8" value="" style="ellipse;whiteSpace=wrap;html=1;aspect=fixed;" vertex="1" parent="1">
          <mxGeometry x="370" y="350" width="40" height="40" as="geometry" />
        </mxCell>
        <mxCell id="K1aNCSsKctviTdPy4IMN-9" value="" style="endArrow=none;html=1;rounded=0;entryX=0;entryY=1;entryDx=0;entryDy=0;exitX=0.5;exitY=0;exitDx=0;exitDy=0;strokeWidth=4;" edge="1" parent="1" source="K1aNCSsKctviTdPy4IMN-3" target="K1aNCSsKctviTdPy4IMN-1">
          <mxGeometry width="50" height="50" relative="1" as="geometry">
            <mxPoint x="250" y="300" as="sourcePoint" />
            <mxPoint x="300" y="250" as="targetPoint" />
          </mxGeometry>
        </mxCell>
        <mxCell id="K1aNCSsKctviTdPy4IMN-10" value="" style="endArrow=none;html=1;rounded=0;entryX=0;entryY=0;entryDx=0;entryDy=0;exitX=1;exitY=1;exitDx=0;exitDy=0;strokeWidth=4;" edge="1" parent="1" source="K1aNCSsKctviTdPy4IMN-1" target="K1aNCSsKctviTdPy4IMN-4">
          <mxGeometry width="50" height="50" relative="1" as="geometry">
            <mxPoint x="110" y="290" as="sourcePoint" />
            <mxPoint x="136" y="244" as="targetPoint" />
          </mxGeometry>
        </mxCell>
        <mxCell id="K1aNCSsKctviTdPy4IMN-11" value="" style="endArrow=none;html=1;rounded=0;entryX=1;entryY=1;entryDx=0;entryDy=0;exitX=0;exitY=0;exitDx=0;exitDy=0;strokeWidth=4;" edge="1" parent="1" source="K1aNCSsKctviTdPy4IMN-6" target="K1aNCSsKctviTdPy4IMN-4">
          <mxGeometry width="50" height="50" relative="1" as="geometry">
            <mxPoint x="164" y="244" as="sourcePoint" />
            <mxPoint x="186" y="276" as="targetPoint" />
          </mxGeometry>
        </mxCell>
        <mxCell id="K1aNCSsKctviTdPy4IMN-12" value="" style="endArrow=none;html=1;rounded=0;entryX=0;entryY=0.5;entryDx=0;entryDy=0;exitX=1;exitY=0;exitDx=0;exitDy=0;strokeWidth=2;strokeColor=#999999;" edge="1" parent="1" source="K1aNCSsKctviTdPy4IMN-3" target="K1aNCSsKctviTdPy4IMN-4">
          <mxGeometry width="50" height="50" relative="1" as="geometry">
            <mxPoint x="110" y="290" as="sourcePoint" />
            <mxPoint x="136" y="244" as="targetPoint" />
          </mxGeometry>
        </mxCell>
        <mxCell id="K1aNCSsKctviTdPy4IMN-13" value="" style="endArrow=none;html=1;rounded=0;entryX=0;entryY=0.5;entryDx=0;entryDy=0;exitX=1;exitY=0.5;exitDx=0;exitDy=0;strokeWidth=2;strokeColor=#999999;" edge="1" parent="1" source="K1aNCSsKctviTdPy4IMN-3" target="K1aNCSsKctviTdPy4IMN-6">
          <mxGeometry width="50" height="50" relative="1" as="geometry">
            <mxPoint x="124" y="296" as="sourcePoint" />
            <mxPoint x="200" y="280" as="targetPoint" />
          </mxGeometry>
        </mxCell>
        <mxCell id="K1aNCSsKctviTdPy4IMN-14" value="" style="endArrow=none;html=1;rounded=0;entryX=0;entryY=0.5;entryDx=0;entryDy=0;exitX=1;exitY=0;exitDx=0;exitDy=0;strokeWidth=2;strokeColor=#999999;" edge="1" parent="1" source="K1aNCSsKctviTdPy4IMN-1" target="K1aNCSsKctviTdPy4IMN-2">
          <mxGeometry width="50" height="50" relative="1" as="geometry">
            <mxPoint x="164" y="210" as="sourcePoint" />
            <mxPoint x="240" y="194" as="targetPoint" />
          </mxGeometry>
        </mxCell>
        <mxCell id="K1aNCSsKctviTdPy4IMN-15" value="" style="endArrow=none;html=1;rounded=0;entryX=0.5;entryY=0;entryDx=0;entryDy=0;exitX=0.5;exitY=1;exitDx=0;exitDy=0;strokeWidth=4;" edge="1" parent="1" source="K1aNCSsKctviTdPy4IMN-2" target="K1aNCSsKctviTdPy4IMN-4">
          <mxGeometry width="50" height="50" relative="1" as="geometry">
            <mxPoint x="164" y="244" as="sourcePoint" />
            <mxPoint x="206" y="266" as="targetPoint" />
          </mxGeometry>
        </mxCell>
        <mxCell id="K1aNCSsKctviTdPy4IMN-16" value="" style="endArrow=none;html=1;rounded=0;entryX=1;entryY=0;entryDx=0;entryDy=0;exitX=0;exitY=0.5;exitDx=0;exitDy=0;strokeWidth=2;strokeColor=#FF0000;" edge="1" parent="1" source="K1aNCSsKctviTdPy4IMN-7" target="K1aNCSsKctviTdPy4IMN-4">
          <mxGeometry width="50" height="50" relative="1" as="geometry">
            <mxPoint x="250" y="220" as="sourcePoint" />
            <mxPoint x="220" y="260" as="targetPoint" />
          </mxGeometry>
        </mxCell>
        <mxCell id="K1aNCSsKctviTdPy4IMN-17" value="" style="endArrow=none;html=1;rounded=0;entryX=1;entryY=1;entryDx=0;entryDy=0;exitX=0;exitY=0.5;exitDx=0;exitDy=0;strokeWidth=2;strokeColor=#FF0000;" edge="1" parent="1" source="K1aNCSsKctviTdPy4IMN-8" target="K1aNCSsKctviTdPy4IMN-3">
          <mxGeometry width="50" height="50" relative="1" as="geometry">
            <mxPoint x="320" y="260" as="sourcePoint" />
            <mxPoint x="234" y="266" as="targetPoint" />
          </mxGeometry>
        </mxCell>
        <mxCell id="K1aNCSsKctviTdPy4IMN-18" value="" style="endArrow=none;html=1;rounded=0;entryX=1;entryY=0.5;entryDx=0;entryDy=0;exitX=0.24;exitY=0.099;exitDx=0;exitDy=0;strokeWidth=2;strokeColor=#FF0000;exitPerimeter=0;" edge="1" parent="1" source="K1aNCSsKctviTdPy4IMN-8" target="K1aNCSsKctviTdPy4IMN-6">
          <mxGeometry width="50" height="50" relative="1" as="geometry">
            <mxPoint x="340" y="370" as="sourcePoint" />
            <mxPoint x="124" y="324" as="targetPoint" />
          </mxGeometry>
        </mxCell>
        <mxCell id="K1aNCSsKctviTdPy4IMN-19" value="" style="endArrow=none;html=1;rounded=0;entryX=1;entryY=1;entryDx=0;entryDy=0;exitX=0.5;exitY=0;exitDx=0;exitDy=0;strokeWidth=4;" edge="1" parent="1" source="K1aNCSsKctviTdPy4IMN-8" target="K1aNCSsKctviTdPy4IMN-7">
          <mxGeometry width="50" height="50" relative="1" as="geometry">
            <mxPoint x="320" y="260" as="sourcePoint" />
            <mxPoint x="234" y="266" as="targetPoint" />
          </mxGeometry>
        </mxCell>
        <mxCell id="K1aNCSsKctviTdPy4IMN-20" value="" style="endArrow=none;html=1;rounded=0;entryX=1;entryY=1;entryDx=0;entryDy=0;exitX=0;exitY=0;exitDx=0;exitDy=0;strokeWidth=2;strokeColor=#FF0000;" edge="1" parent="1" source="K1aNCSsKctviTdPy4IMN-7" target="K1aNCSsKctviTdPy4IMN-2">
          <mxGeometry width="50" height="50" relative="1" as="geometry">
            <mxPoint x="320" y="260" as="sourcePoint" />
            <mxPoint x="254" y="256" as="targetPoint" />
          </mxGeometry>
        </mxCell>
        <mxCell id="K1aNCSsKctviTdPy4IMN-21" value="" style="endArrow=none;html=1;rounded=0;entryX=0.99;entryY=0.349;entryDx=0;entryDy=0;exitX=0;exitY=0;exitDx=0;exitDy=0;strokeWidth=2;strokeColor=#FF0000;entryPerimeter=0;" edge="1" parent="1" source="K1aNCSsKctviTdPy4IMN-5" target="K1aNCSsKctviTdPy4IMN-2">
          <mxGeometry width="50" height="50" relative="1" as="geometry">
            <mxPoint x="330" y="270" as="sourcePoint" />
            <mxPoint x="264" y="266" as="targetPoint" />
          </mxGeometry>
        </mxCell>
        <mxCell id="K1aNCSsKctviTdPy4IMN-25" value="&lt;font style=&quot;font-size: 23px;&quot;&gt;f&lt;/font&gt;" style="edgeLabel;html=1;align=center;verticalAlign=middle;resizable=0;points=[];" vertex="1" connectable="0" parent="K1aNCSsKctviTdPy4IMN-21">
          <mxGeometry x="0.0615" y="1" relative="1" as="geometry">
            <mxPoint as="offset" />
          </mxGeometry>
        </mxCell>
        <mxCell id="K1aNCSsKctviTdPy4IMN-22" value="" style="endArrow=none;html=1;rounded=0;entryX=0.5;entryY=1;entryDx=0;entryDy=0;exitX=1;exitY=0;exitDx=0;exitDy=0;strokeWidth=2;strokeColor=#999999;" edge="1" parent="1" source="K1aNCSsKctviTdPy4IMN-8" target="K1aNCSsKctviTdPy4IMN-5">
          <mxGeometry width="50" height="50" relative="1" as="geometry">
            <mxPoint x="164" y="216" as="sourcePoint" />
            <mxPoint x="200" y="190" as="targetPoint" />
          </mxGeometry>
        </mxCell>
        <mxCell id="K1aNCSsKctviTdPy4IMN-23" value="" style="endArrow=none;html=1;rounded=0;entryX=1;entryY=0;entryDx=0;entryDy=0;exitX=0;exitY=1;exitDx=0;exitDy=0;strokeWidth=4;strokeColor=#FF0000;" edge="1" parent="1" source="K1aNCSsKctviTdPy4IMN-7" target="K1aNCSsKctviTdPy4IMN-6">
          <mxGeometry width="50" height="50" relative="1" as="geometry">
            <mxPoint x="320" y="260" as="sourcePoint" />
            <mxPoint x="254" y="256" as="targetPoint" />
          </mxGeometry>
        </mxCell>
        <mxCell id="K1aNCSsKctviTdPy4IMN-24" value="e" style="edgeLabel;html=1;align=center;verticalAlign=middle;resizable=0;points=[];fontSize=16;" vertex="1" connectable="0" parent="K1aNCSsKctviTdPy4IMN-23">
          <mxGeometry y="1" relative="1" as="geometry">
            <mxPoint as="offset" />
          </mxGeometry>
        </mxCell>
      </root>
    </mxGraphModel>
  </diagram>
</mxfile>
